Coordinates
version=1
nRows=7
nColumns=40
inDegrees=yes

Units are S.I. units (second, meters, Newtons, ...)
Angles are in degrees.

endheader
time	pelvis_tilt	pelvis_list	pelvis_rotation	pelvis_tx	pelvis_ty	pelvis_tz	hip_flexion_r	hip_adduction_r	hip_rotation_r	knee_angle_r	knee_angle_r_beta	ankle_angle_r	subtalar_angle_r	mtp_angle_r	hip_flexion_l	hip_adduction_l	hip_rotation_l	knee_angle_l	knee_angle_l_beta	ankle_angle_l	subtalar_angle_l	mtp_angle_l	lumbar_extension	lumbar_bending	lumbar_rotation	arm_flex_r	arm_add_r	arm_rot_r	elbow_flex_r	pro_sup_r	wrist_flex_r	wrist_dev_r	arm_flex_l	arm_add_l	arm_rot_l	elbow_flex_l	pro_sup_l	wrist_flex_l	wrist_dev_l
      3.58000000	     -2.41591946	     -6.68455259	      1.82006798	      0.99845349	      0.93044924	      0.49382865	     11.46991075	      4.07693623	    -17.17932389	     15.67083236	     15.67083236	      8.57502601	     -1.05155873	     -5.93083444	     27.91336923	    -13.34032402	      1.66760997	     66.22656148	     66.22656148	     10.81879410	    -18.82321184	     14.39048926	    -10.91986523	      8.72590588	      2.57022630	     13.47772402	    -15.41361821	     -8.29305003	     35.51140238	     45.56186860	      0.00000000	      0.00000000	      4.90775149	     -8.72949372	     -0.10638782	     43.81069023	     45.56397666	      0.00000000	      0.00000000
      3.59150000	     -2.42396357	     -6.64861861	      2.05728222	      0.99728850	      0.93078031	      0.49459212	     10.58414039	      4.24326395	    -17.07033203	     15.08875869	     15.08875869	      8.90321310	     -1.19633945	     -6.01062070	     29.48561425	    -13.20039310	      1.63857163	     64.42877398	     64.42877398	     11.08422072	    -18.95749302	     14.61954373	    -10.95351748	      8.52538203	      2.22742201	     16.05983766	    -15.39152230	     -8.33166774	     37.15008235	     45.52228567	      0.00000000	      0.00000000	      3.49113201	     -8.65687360	      0.19401710	     42.20221527	     45.51896020	      0.00000000	      0.00000000
      3.60300000	     -2.41270451	     -6.63898932	      2.28658656	      0.99618784	      0.93105095	      0.49531492	      9.66175478	      4.43436109	    -17.03399447	     14.46782683	     14.46782683	      9.16504524	     -1.24066430	     -6.20419452	     30.81825604	    -13.05481226	      1.57476585	     62.32308976	     62.32308976	     11.36118043	    -19.02334434	     15.08725823	    -11.00736774	      8.36954930	      1.97662268	     18.53866067	    -15.45861122	     -8.10639042	     38.98652257	     45.46164662	      0.00000000	      0.00000000	      2.44766446	     -8.47199073	      0.61638986	     39.73914234	     45.46689393	      0.00000000	      0.00000000
      3.61450000	     -2.41953142	     -6.59214070	      2.48498047	      0.99512067	      0.93121476	      0.49592582	      8.76570728	      4.57281132	    -16.99332840	     13.83617356	     13.83617356	      9.28021923	     -1.27691992	     -6.83728636	     31.97227096	    -12.82448669	      1.46003543	     59.95947512	     59.95947512	     11.78106987	    -19.06612271	     16.28330456	    -11.03295068	      8.21723103	      2.54395408	     20.14900019	    -16.26702263	     -6.95176230	     41.55871971	     45.33823178	      0.00000000	      0.00000000	      2.70788487	     -7.90852036	      1.42848230	     34.97780695	     45.41968702	      0.00000000	      0.00000000
      3.62600000	     -2.38475275	     -6.52529138	      2.67918886	      0.99414098	      0.93138044	      0.49649652	      7.84299325	      4.68067556	    -16.96467535	     13.26623213	     13.26623213	      9.61098799	     -1.18188694	     -6.86399191	     32.84427048	    -12.57298775	      1.25919316	     57.23271520	     57.23271520	     11.84240391	    -19.09865178	     16.71397743	    -11.14621961	      8.00595844	      2.39434815	     22.50552453	    -16.29753649	     -6.93503534	     43.21541768	     45.29405205	      0.00000000	      0.00000000	      1.46723974	     -7.80333724	      1.69902627	     33.59201294	     45.37394313	      0.00000000	      0.00000000
      3.63750000	     -2.35984795	     -6.54118765	      2.87504579	      0.99319802	      0.93141508	      0.49701648	      6.93258935	      4.87130376	    -17.03629853	     12.67152427	     12.67152427	      9.91206701	     -0.99080345	     -6.92922660	     33.58669562	    -12.35896371	      1.11164160	     54.26169841	     54.26169841	     11.82308614	    -19.10236956	     17.19662432	    -11.23115913	      7.88994836	      2.25081850	     24.78924072	    -16.34530425	     -6.79312781	     44.97273684	     45.24010940	      0.00000000	      0.00000000	      0.38593083	     -7.65792095	      2.02998762	     31.83478476	     45.32203337	      0.00000000	      0.00000000
      3.64900000	     -2.53847878	     -6.76928855	      3.03706855	      0.99222882	      0.93069551	      0.49745392	      6.50233377	      5.19369744	    -17.08993643	     12.56933527	     12.56933527	     10.34495354	     -0.98542906	     -7.08910942	     34.54654014	    -12.27465478	      1.17804719	     51.27976026	     51.27976026	     12.05545136	    -18.83766094	     17.43922587	    -11.01346878	      8.05454464	      2.99675488	     26.64177613	    -16.92937495	     -6.88075748	     45.82688965	     45.22544097	      0.00000000	      0.00000000	     -0.60528068	     -7.48770344	      2.11088978	     31.24004717	     45.29702836	      0.00000000	      0.00000000
